<?xml version="1.0" encoding="utf-8"?>
<!-- Svg Vector Icons : http://www.onlinewebfonts.com/icon -->
<!DOCTYPE svg PUBLIC "-//W3C//DTD SVG 1.1//EN" "http://www.w3.org/Graphics/SVG/1.1/DTD/svg11.dtd">
<svg version="1.1" xmlns="http://www.w3.org/2000/svg" xmlns:xlink="http://www.w3.org/1999/xlink" x="0px" y="0px" viewBox="0 0 1000 1000" enable-background="new 0 0 1000 1000" xml:space="preserve">
<metadata> Svg Vector Icons : http://www.onlinewebfonts.com/icon </metadata>
<g><g transform="translate(0.000000,512.000000) scale(0.100000,-0.100000)"><path d="M3883.2,4994.8C3143.8,4855,2573.1,4322.5,2372,3588.9c-55.5-201.1-61.3-701-9.6-936.6c153.2-708.7,555.5-1367.6,1287.1-2103.1C4155.2,41.7,4699.1-397,5426.9-883.5l335.2-226L6105-879.6C7926.5,346.2,8939.7,1522.3,9169.6,2681c51.7,264.3,44.1,672.3-17.2,906c-203,760.4-810.2,1304.4-1584,1417.4c-203,30.6-480.7,15.3-681.9-38.3c-191.5-49.8-498-199.2-660.8-323.7c-120.7-91.9-329.5-298.8-419.5-413.7l-44.1-57.5l-59.4,76.6c-159,208.8-469.3,465.4-701,584.2C4681.9,4994.8,4229.9,5059.9,3883.2,4994.8z"/><path d="M3084.5-1866c-252.8-42.1-534.4-166.6-756.6-331.4c-270.1-201.1-363.9-220.3-1053.4-197.3c-273.9,7.6-545.9,15.3-605.3,13.4c-137.9-1.9-218.3-55.5-247.1-162.8c-13.4-49.8-19.2-327.5-15.3-798.7c5.7-641.6,9.6-729.8,38.3-783.4c63.2-113,109.2-118.8,963.4-126.4c863.8-9.6,825.5-5.7,2072.4-204.9c398.4-65.1,909.8-145.6,1135.8-182c540.1-86.2,827.4-120.7,1135.8-136c293.1-15.3,360.1,0,842.8,178.1c344.8,126.4,1218.2,488.4,1331.2,551.6c44.1,24.9,147.5,97.7,229.8,160.9c80.4,63.2,293,226,473.1,360.1c178.1,136,350.5,281.6,383.1,323.7c109.2,149.4,417.5,647.4,492.3,793c42.1,82.4,78.5,187.7,84.3,243.3c11.5,86.2,7.7,101.5-44,157.1c-42.1,49.8-74.7,65.1-141.7,72.8c-206.9,23-488.4-195.4-842.8-657c-99.6-128.3-113-137.9-860-603.3c-53.6-32.6-157.1-69-268.2-93.9c-235.6-49.8-484.6-122.6-699.1-204.9c-197.3-74.7-214.5-74.7-544,1.9c-120.7,28.7-337.1,72.8-478.8,95.8c-143.7,24.9-247.1,49.8-231.8,55.5c147.5,61.3,616.8,185.8,1024.7,273.9c526.7,113,735.5,172.4,861.9,247.1c109.2,63.2,201.1,166.6,218.4,241.3c57.5,264.3-227.9,442.5-716.3,446.3c-193.4,0-245.2-7.6-622.5-101.5c-522.9-130.3-553.5-128.3-1118.6,34.5c-837,245.2-1367.6,348.6-1764.1,344.8C3235.8-1856.5,3111.3-1862.2,3084.5-1866z"/></g></g>
</svg>